# xmcd
#
# Track frame offsets: 
#        150
#        11753
#        24515
#        38027
#        51534
#        63917
#        76074
#        89483
#        104373
#        116360
#        133444
#        146092
#        161565
#        178834
#        194724
#        210417
#        227111
#        244534
#        260347
#        271772
#        289922
#        305871
#
# Disc length: 4304 seconds
#
# Revision: 0
# Processed by: cddbd v1.5.2PL0 Copyright (c) Steve Scherf et al.
# Submitted via: ExactAudioCopy v1.1
#
DISCID=4510ce16
DTITLE=Jimmy Frey - De Allergrootste Hits - CD 1
DYEAR=2019
DGENRE=Chanson
TTITLE0=Zo Mooi, Zo Blond En Zo Alleen
TTITLE1=Ik Geloof
TTITLE2=Aan De Overkant
TTITLE3=Rozen Voor Sandra
TTITLE4=De Zevende Hemel
TTITLE5=Happy Music
TTITLE6=Stop
TTITLE7=Als Een Kus Naar Tranen Smaakt
TTITLE8=Duw Een Beetje
TTITLE9=Meisje Van Mijn Leven
TTITLE10=De Smaak Van Je Lippen
TTITLE11=Ze Noemen Mij Een Playboy
TTITLE12=Ogen Kunnen Niet Liegen
TTITLE13=Saragossa
TTITLE14=Droom Met Me Mee
TTITLE15=Samen Leven
TTITLE16=Niemand Weet Hoeveel Ik Van Je Hou
TTITLE17=Pappie Nummer Twee
TTITLE18=Yet I Know
TTITLE19=Stay With Me
TTITLE20=Momenten Van Geluk (Nieuwe Opname)
TTITLE21=Toreadood (Nieuwe Opname)
EXTD=
EXTT0=
EXTT1=
EXTT2=
EXTT3=
EXTT4=
EXTT5=
EXTT6=
EXTT7=
EXTT8=
EXTT9=
EXTT10=
EXTT11=
EXTT12=
EXTT13=
EXTT14=
EXTT15=
EXTT16=
EXTT17=
EXTT18=
EXTT19=
EXTT20=
EXTT21=
PLAYORDER=
